<svg height="255" preserveAspectRatio="xMidYMid" viewBox="0 0 255 255" width="255" xmlns="http://www.w3.org/2000/svg" xmlns:xlink="http://www.w3.org/1999/xlink"><linearGradient id="a" gradientUnits="userSpaceOnUse" x1="101.109" x2="101.109" y1="136.594" y2="-.312"><stop offset="0" stop-color="#ff5134"/><stop offset="1" stop-color="#fd7507"/></linearGradient><g fill-rule="evenodd"><path d="m133.871 8.803s22.673 21.142 22.673 21.142-101.618 106.972-101.618 106.972-4.388-4.092-4.388-4.092c-3.232-3.013-3.768-6.59-3.953-11.89-.15-4.299-4.851-55.849 38.115-101.924 24.642-26.425 37.862-20.754 49.171-10.208z" fill="url(#a)"/><path d="m181.293 9.27s62.165 57.97 62.165 57.97c12.925 12.053 15.091 33.67 6.699 50.001-31.056 60.435-114.446 86.071-114.446 86.071-4.72 1.64-8.563 2.953-13.501-1.651 0 0-71.672-66.836-71.672-66.836-3.232-3.014-3.408-8.076-.395-11.307 0 0 85.923-112.669 85.923-112.669 12.053-12.925 32.302-13.632 45.227-1.579z" fill="#ff5134"/><path d="m55.463 137.553s67.285 62.744 67.285 62.744c3.231 3.013 3.408 8.075.394 11.306 0 0-38.191 40.956-38.191 40.956-3.014 3.232-8.076 3.408-11.307.395 0 0-67.285-62.744-67.285-62.744-3.231-3.013-3.408-8.075-.395-11.307 0 0 38.192-40.955 38.192-40.955 3.013-3.232 8.076-3.409 11.307-.395z" fill="#fc0231"/><path d="m35.479 133.59s73.135 68.2 73.135 68.2c3.231 3.013 3.408 8.076.395 11.307 0 0-24.552 26.329-24.552 26.329-3.013 3.231-8.075 3.408-11.307.394 0 0-73.135-68.199-73.135-68.199s35.464-38.031 35.464-38.031z" fill="#ff5134"/><path d="m30.023 139.441s69.478 64.79 69.478 64.79c2.02 1.883 2.13 5.047.247 7.067 0 0-17.732 19.015-17.732 19.015-1.883 2.02-5.047 2.13-7.067.247 0 0-69.478-64.79-69.478-64.79s24.552-26.329 24.552-26.329z" fill="#1c8cea"/></g></svg>